<?xml version="1.0" encoding="UTF-8" standalone="no"?>
<!-- Created with Inkscape (http://www.inkscape.org/) -->

<svg
   xmlns:dc="http://purl.org/dc/elements/1.1/"
   xmlns:cc="http://creativecommons.org/ns#"
   xmlns:rdf="http://www.w3.org/1999/02/22-rdf-syntax-ns#"
   xmlns:svg="http://www.w3.org/2000/svg"
   xmlns="http://www.w3.org/2000/svg"
   xmlns:sodipodi="http://sodipodi.sourceforge.net/DTD/sodipodi-0.dtd"
   xmlns:inkscape="http://www.inkscape.org/namespaces/inkscape"
   width="777.79852"
   height="292.63992"
   id="svg3861"
   version="1.1"
   inkscape:version="0.48.4 r9939"
   sodipodi:docname="IELTS.svg">
  <defs
     id="defs3863" />
  <sodipodi:namedview
     id="base"
     pagecolor="#ffffff"
     bordercolor="#666666"
     borderopacity="1.0"
     inkscape:pageopacity="0.0"
     inkscape:pageshadow="2"
     inkscape:zoom="0.7"
     inkscape:cx="358.36426"
     inkscape:cy="28.467988"
     inkscape:document-units="px"
     inkscape:current-layer="layer1"
     showgrid="false"
     showguides="true"
     inkscape:guide-bbox="true"
     fit-margin-top="0"
     fit-margin-left="0"
     fit-margin-right="0"
     fit-margin-bottom="0"
     inkscape:window-width="1680"
     inkscape:window-height="975"
     inkscape:window-x="-9"
     inkscape:window-y="-9"
     inkscape:window-maximized="1" />
  <metadata
     id="metadata3866">
    <rdf:RDF>
      <cc:Work
         rdf:about="">
        <dc:format>image/svg+xml</dc:format>
        <dc:type
           rdf:resource="http://purl.org/dc/dcmitype/StillImage" />
        <dc:title></dc:title>
      </cc:Work>
    </rdf:RDF>
  </metadata>
  <g
     inkscape:label="Layer 1"
     inkscape:groupmode="layer"
     id="layer1"
     transform="translate(107.14286,-229.37293)">
    <path
       inkscape:connector-curvature="0"
       id="path3961"
       style="font-size:44.28073502px;font-style:normal;font-variant:normal;font-weight:bold;font-stretch:normal;line-height:125%;letter-spacing:0px;word-spacing:0px;fill:#000000;fill-opacity:1;stroke:none;font-family:Arial;-inkscape-font-specification:Arial Bold"
       d="m -106.35762,512.32013 0,-32.96877 22.595939,0 0,5.57725 -16.442859,0 0,7.3089 15.29955,0 0,5.55477 -15.29955,0 0,8.97309 17.024907,0 0,5.55476 z" />
    <path
       inkscape:connector-curvature="0"
       id="path3963"
       style="font-size:44.28073502px;font-style:normal;font-variant:normal;font-weight:bold;font-stretch:normal;line-height:125%;letter-spacing:0px;word-spacing:0px;fill:#000000;fill-opacity:1;stroke:none;font-family:Arial;-inkscape-font-specification:Arial Bold"
       d="m -57.881325,512.32013 -5.841269,0 0,-12.189 c -1.7e-5,-2.57872 -0.124741,-4.24665 -0.374173,-5.0038 -0.249467,-0.7571 -0.654821,-1.34556 -1.216065,-1.76537 -0.561276,-0.41977 -1.236867,-0.62967 -2.026776,-0.62969 -1.011667,2e-5 -1.919384,0.29987 -2.723153,0.89956 -0.803791,0.59972 -1.354658,1.39433 -1.652601,2.38382 -0.297962,0.98953 -0.446939,2.81862 -0.44693,5.48731 l 0,10.81717 -5.841269,0 0,-23.88325 5.42552,0 0,3.50828 c 1.926293,-2.69865 4.351491,-4.04799 7.275603,-4.04801 1.288803,2e-5 2.466757,0.25115 3.533864,0.75338 1.067067,0.50228 1.874312,1.14321 2.421735,1.9228 0.547381,0.77963 0.928484,1.6642 1.143309,2.65369 0.214781,0.98953 0.322182,2.40633 0.322205,4.25042 z" />
    <path
       inkscape:connector-curvature="0"
       id="path3965"
       style="font-size:44.28073502px;font-style:normal;font-variant:normal;font-weight:bold;font-stretch:normal;line-height:125%;letter-spacing:0px;word-spacing:0px;fill:#000000;fill-opacity:1;stroke:none;font-family:Arial;-inkscape-font-specification:Arial Bold"
       d="m -52.47659,513.89436 6.672767,0.87706 c 0.110857,0.83958 0.367235,1.4168 0.769135,1.73165 0.554321,0.44977 1.427392,0.67466 2.619217,0.67467 1.524398,-10e-6 2.667705,-0.24738 3.429927,-0.74214 0.51274,-0.32984 0.900772,-0.86207 1.164096,-1.59671 0.18014,-0.52474 0.270219,-1.49177 0.270237,-2.90107 l 0,-3.48578 c -1.74616,2.57873 -3.949626,3.86809 -6.610405,3.86809 -2.965682,0 -5.314659,-1.35684 -7.04694,-4.0705 -1.358114,-2.14394 -2.03717,-4.81262 -2.037169,-8.00605 -10e-7,-4.00302 0.890393,-7.06151 2.671186,-9.1755 1.780784,-2.11393 3.994644,-3.17091 6.641585,-3.17093 2.730069,2e-5 4.982039,1.29689 6.755916,3.89058 l 0,-3.35085 5.467096,0 0,21.43196 c -2.3e-5,2.81861 -0.214826,4.92506 -0.644411,6.31939 -0.429629,1.3943 -1.032464,2.48876 -1.808506,3.28338 -0.776085,0.7946 -1.811991,1.41679 -3.107722,1.86658 -1.295767,0.44977 -2.934507,0.67466 -4.916228,0.67467 -3.741748,-1e-5 -6.395608,-0.69342 -7.961588,-2.08023 -1.56599,-1.38682 -2.348982,-3.14471 -2.34898,-5.27365 -2e-6,-0.20991 0.0069,-0.46478 0.02079,-0.76462 z m 5.217647,-14.01061 c -8e-6,2.53376 0.453851,4.3891 1.361577,5.56601 0.907707,1.17693 2.026764,1.76538 3.35717,1.76538 1.42739,0 2.63306,-0.60344 3.617014,-1.81036 0.983922,-1.20689 1.47589,-2.99477 1.475908,-5.36361 -1.8e-5,-2.47376 -0.471199,-4.31036 -1.413545,-5.50978 -0.94238,-1.1994 -2.134191,-1.7991 -3.575439,-1.79912 -1.399699,2e-5 -2.553401,0.58848 -3.461108,1.76538 -0.907726,1.17693 -1.361585,2.9723 -1.361577,5.3861 z" />
    <path
       inkscape:connector-curvature="0"
       id="path3967"
       style="font-size:44.28073502px;font-style:normal;font-variant:normal;font-weight:bold;font-stretch:normal;line-height:125%;letter-spacing:0px;word-spacing:0px;fill:#000000;fill-opacity:1;stroke:none;font-family:Arial;-inkscape-font-specification:Arial Bold"
       d="m -25.910253,512.32013 0,-32.96877 5.841269,0 0,32.96877 z" />
    <path
       inkscape:connector-curvature="0"
       id="path3969"
       style="font-size:44.28073502px;font-style:normal;font-variant:normal;font-weight:bold;font-stretch:normal;line-height:125%;letter-spacing:0px;word-spacing:0px;fill:#000000;fill-opacity:1;stroke:none;font-family:Arial;-inkscape-font-specification:Arial Bold"
       d="m -14.102985,485.19847 0,-5.84711 5.8412692,0 0,5.84711 z m 0,27.12166 0,-23.88325 5.8412692,0 0,23.88325 z" />
    <path
       inkscape:connector-curvature="0"
       id="path3971"
       style="font-size:44.28073502px;font-style:normal;font-variant:normal;font-weight:bold;font-stretch:normal;line-height:125%;letter-spacing:0px;word-spacing:0px;fill:#000000;fill-opacity:1;stroke:none;font-family:Arial;-inkscape-font-specification:Arial Bold"
       d="m -4.3536802,505.50599 5.8620566,-0.96704 c 0.2494421,1.22941 0.7552692,2.1627 1.5174827,2.79988 0.7621969,0.63719 1.8292841,0.95578 3.201265,0.95578 1.5105405,0 2.6469192,-0.29985 3.409139,-0.89956 0.5127409,-0.41979 0.7691199,-0.98201 0.7691349,-1.68667 -1.5e-5,-0.47975 -0.138598,-0.87706 -0.4157483,-1.19191 -0.2910391,-0.29985 -0.942378,-0.57721 -1.9540188,-0.83209 -4.7118272,-1.12444 -7.69828565,-2.15143 -8.95938434,-3.08098 -1.74614716,-1.28936 -2.61921856,-3.08098 -2.61921676,-5.37486 -1.8e-6,-2.06896 0.7552743,-3.8081 2.2658304,-5.21744 1.51054797,-1.40928 3.8525966,-2.11393 7.0261529,-2.11395 3.0210931,2e-5 5.2661339,0.53226 6.7351289,1.59671 1.468959,1.0645 2.480613,2.63873 3.034965,4.72268 l -5.508669,1.10196 c -0.2356065,-0.92953 -0.6825362,-1.64168 -1.3407903,-2.13645 -0.6582821,-0.49474 -1.5971803,-0.74212 -2.8166974,-0.74214 -1.5382799,2e-5 -2.6400128,0.23241 -3.3052021,0.69716 -0.4434728,0.32986 -0.6652052,0.75715 -0.665198,1.28187 -7.2e-6,0.44979 0.1940087,0.83211 0.5820482,1.14693 0.5266067,0.41981 2.3455054,1.01202 5.4567016,1.77663 3.11117,0.76464 5.283455,1.70167 6.516861,2.81112 1.219509,1.12445 1.829272,2.69119 1.829294,4.70018 -2.2e-5,2.18893 -0.845376,4.0705 -2.536067,5.64473 -1.690728,1.57422 -4.1921475,2.36133 -7.5042639,2.36133 -3.0072575,0 -5.38741635,-0.65967 -7.14048382,-1.97903 -1.75307628,-1.31934 -2.89984868,-3.11096 -3.44032048,-5.37484 z" />
    <path
       inkscape:connector-curvature="0"
       id="path3973"
       style="font-size:44.28073502px;font-style:normal;font-variant:normal;font-weight:bold;font-stretch:normal;line-height:125%;letter-spacing:0px;word-spacing:0px;fill:#000000;fill-opacity:1;stroke:none;font-family:Arial;-inkscape-font-specification:Arial Bold"
       d="m 27.222438,479.35136 0,12.12153 c 1.884717,-2.3838 4.136686,-3.57572 6.755916,-3.57574 1.344236,2e-5 2.556836,0.26989 3.637801,0.8096 1.080926,0.53976 1.8951,1.22941 2.442524,2.06898 0.547379,0.8396 0.921553,1.76915 1.122521,2.78862 0.200922,1.01952 0.301394,2.60124 0.301417,4.74517 l 0,14.01061 -5.841269,0 0,-12.61629 c -1.7e-5,-2.50375 -0.110883,-4.09297 -0.332598,-4.76766 -0.221749,-0.67464 -0.613246,-1.21063 -1.17449,-1.60795 -0.561276,-0.39729 -1.264584,-0.59594 -2.109925,-0.59596 -0.970093,2e-5 -1.836235,0.25489 -2.598429,0.76462 -0.762217,0.50977 -1.320013,1.27815 -1.673389,2.30512 -0.353395,1.027 -0.530089,2.54501 -0.530079,4.554 l 0,11.96412 -5.84127,0 0,-32.96877 z" />
    <path
       inkscape:connector-curvature="0"
       id="path3975"
       style="font-size:44.28073502px;font-style:normal;font-variant:normal;font-weight:bold;font-stretch:normal;line-height:125%;letter-spacing:0px;word-spacing:0px;fill:#000000;fill-opacity:1;stroke:none;font-family:Arial;-inkscape-font-specification:Arial Bold"
       d="m 56.678232,488.43688 3.242841,0 0,-1.79911 c -4e-6,-2.00898 0.197476,-3.50824 0.592441,-4.49778 0.394957,-0.98949 1.122516,-1.79535 2.18268,-2.41757 1.060153,-0.62216 2.40094,-0.93326 4.02237,-0.93329 1.662982,3e-5 3.291329,0.2699 4.885046,0.8096 l -0.789922,4.40784 c -0.928519,-0.23986 -1.822378,-0.3598 -2.68158,-0.35983 -0.845366,3e-5 -1.451666,0.21367 -1.8189,0.64093 -0.367254,0.42732 -0.550876,1.24817 -0.550866,2.46254 l 0,1.68667 4.365361,0 0,4.97005 -4.365361,0 0,18.9132 -5.841269,0 0,-18.9132 -3.242841,0 z" />
    <path
       inkscape:connector-curvature="0"
       id="path3977"
       style="font-size:44.28073502px;font-style:normal;font-variant:normal;font-weight:bold;font-stretch:normal;line-height:125%;letter-spacing:0px;word-spacing:0px;fill:#000000;fill-opacity:1;stroke:none;font-family:Arial;-inkscape-font-specification:Arial Bold"
       d="m 72.102513,500.04117 c -2e-6,-2.09896 0.478109,-4.13045 1.434333,-6.0945 0.956218,-1.96402 2.310864,-3.46327 4.063943,-4.49778 1.753065,-1.03448 3.710546,-1.55172 5.872451,-1.55174 3.339831,2e-5 6.076841,1.17319 8.211036,3.51952 2.134153,2.34636 3.201241,5.31115 3.201265,8.89437 -2.4e-5,3.61322 -1.077505,6.608 -3.232446,8.98433 -2.154983,2.37633 -4.86774,3.56449 -8.138281,3.56449 -2.023321,0 -3.953086,-0.49475 -5.7893,-1.48427 -1.836229,-0.98951 -3.23245,-2.44004 -4.188668,-4.35161 -0.956224,-1.91154 -1.434335,-4.23915 -1.434333,-6.98281 z m 5.986781,0.33733 c -8e-6,2.36885 0.519678,4.18295 1.559057,5.44233 1.039362,1.25938 2.321253,1.88907 3.845676,1.88907 1.524397,0 2.802823,-0.62969 3.835282,-1.88907 1.032425,-1.25938 1.548645,-3.08847 1.548663,-5.4873 -1.8e-5,-2.33884 -0.516238,-4.13795 -1.548663,-5.39735 -1.032459,-1.25936 -2.310885,-1.88905 -3.835282,-1.88907 -1.524423,2e-5 -2.806314,0.62971 -3.845676,1.88907 -1.039379,1.2594 -1.559065,3.07351 -1.559057,5.44232 z" />
    <path
       inkscape:connector-curvature="0"
       id="path3979"
       style="font-size:44.28073502px;font-style:normal;font-variant:normal;font-weight:bold;font-stretch:normal;line-height:125%;letter-spacing:0px;word-spacing:0px;fill:#000000;fill-opacity:1;stroke:none;font-family:Arial;-inkscape-font-specification:Arial Bold"
       d="m 105.07137,512.32013 -5.841256,0 0,-23.88325 5.425516,0 0,3.39583 c 0.92849,-1.60419 1.76345,-2.66116 2.50489,-3.17094 0.7414,-0.50973 1.58329,-0.7646 2.52567,-0.76462 1.33038,2e-5 2.61227,0.39733 3.84568,1.19191 l -1.80851,5.50979 c -0.98395,-0.68964 -1.8986,-1.03447 -2.74394,-1.0345 -0.81766,3e-5 -1.51057,0.24365 -2.07875,0.7309 -0.56819,0.48727 -1.01513,1.36809 -1.34078,2.64245 -0.32569,1.27438 -0.48852,3.94307 -0.48852,8.00606 z" />
    <path
       inkscape:connector-curvature="0"
       id="path3981"
       style="font-size:44.28073502px;font-style:normal;font-variant:normal;font-weight:bold;font-stretch:normal;line-height:125%;letter-spacing:0px;word-spacing:0px;fill:#000000;fill-opacity:1;stroke:none;font-family:Arial;-inkscape-font-specification:Arial Bold"
       d="m 127.6881,512.32013 0,-32.96877 6.15308,0 0,32.96877 z" />
    <path
       inkscape:connector-curvature="0"
       id="path3983"
       style="font-size:44.28073502px;font-style:normal;font-variant:normal;font-weight:bold;font-stretch:normal;line-height:125%;letter-spacing:0px;word-spacing:0px;fill:#000000;fill-opacity:1;stroke:none;font-family:Arial;-inkscape-font-specification:Arial Bold"
       d="m 159.72154,512.32013 -5.84127,0 0,-12.189 c -2e-5,-2.57872 -0.12473,-4.24665 -0.37417,-5.0038 -0.24947,-0.7571 -0.65482,-1.34556 -1.21607,-1.76537 -0.56127,-0.41977 -1.23686,-0.62967 -2.02677,-0.62969 -1.01167,2e-5 -1.91938,0.29987 -2.72315,0.89956 -0.80379,0.59972 -1.35466,1.39433 -1.65261,2.38382 -0.29795,0.98953 -0.44694,2.81862 -0.44693,5.48731 l 0,10.81717 -5.84127,0 0,-23.88325 5.42552,0 0,3.50828 c 1.9263,-2.69865 4.3515,-4.04799 7.27561,-4.04801 1.2888,2e-5 2.46676,0.25115 3.53386,0.75338 1.06707,0.50228 1.87431,1.14321 2.42174,1.9228 0.54738,0.77963 0.92848,1.6642 1.14331,2.65369 0.21478,0.98953 0.32218,2.40633 0.3222,4.25042 z" />
    <path
       inkscape:connector-curvature="0"
       id="path3985"
       style="font-size:44.28073502px;font-style:normal;font-variant:normal;font-weight:bold;font-stretch:normal;line-height:125%;letter-spacing:0px;word-spacing:0px;fill:#000000;fill-opacity:1;stroke:none;font-family:Arial;-inkscape-font-specification:Arial Bold"
       d="m 175.79023,488.43688 0,5.03753 -3.99119,0 0,9.62526 c -1e-5,1.94905 0.0381,3.08474 0.11433,3.40707 0.0762,0.32234 0.24943,0.58847 0.51968,0.79835 0.27023,0.20991 0.59936,0.31486 0.9874,0.31485 0.54047,1e-5 1.32347,-0.2024 2.34899,-0.6072 l 0.49889,4.90259 c -1.35812,0.62969 -2.89639,0.94453 -4.6148,0.94453 -1.05325,0 -2.00253,-0.19115 -2.84788,-0.57347 -0.84537,-0.38231 -1.46553,-0.87706 -1.86048,-1.48426 -0.39496,-0.6072 -0.66866,-1.42805 -0.82111,-2.46254 -0.12472,-0.73464 -0.18708,-2.2189 -0.18708,-4.45281 l 0,-10.41237 -2.68158,0 0,-5.03753 2.68158,0 0,-4.74516 5.86206,-3.68818 0,8.43334 z" />
    <path
       inkscape:connector-curvature="0"
       id="path3987"
       style="font-size:44.28073502px;font-style:normal;font-variant:normal;font-weight:bold;font-stretch:normal;line-height:125%;letter-spacing:0px;word-spacing:0px;fill:#000000;fill-opacity:1;stroke:none;font-family:Arial;-inkscape-font-specification:Arial Bold"
       d="m 192.66964,504.71886 5.82048,1.05699 c -0.74837,2.30887 -1.92979,4.06674 -3.54425,5.27365 -1.61452,1.2069 -3.63436,1.81036 -6.05955,1.81036 -3.83875,0 -6.6797,-1.35683 -8.52284,-4.07049 -1.45513,-2.17393 -2.18269,-4.91758 -2.18269,-8.23095 0,-3.95803 0.95623,-7.05776 2.86867,-9.29917 1.91244,-2.24138 4.33072,-3.36208 7.25482,-3.3621 3.2844,2e-5 5.8759,1.17319 7.7745,3.51952 1.89856,2.34636 2.80628,5.94084 2.72316,10.78344 l -14.63436,0 c 0.0415,1.87409 0.51274,3.33212 1.41354,4.37409 0.90078,1.04199 2.02331,1.56299 3.36757,1.56299 0.91464,0 1.68377,-0.26987 2.30741,-0.80961 0.62361,-0.53973 1.09478,-1.4093 1.41354,-2.60872 z m 0.3326,-6.38685 c -0.0416,-1.82908 -0.47813,-3.21964 -1.30961,-4.1717 -0.83151,-0.95201 -1.84317,-1.42802 -3.03496,-1.42804 -1.27498,2e-5 -2.32821,0.50227 -3.15969,1.50676 -0.83151,1.00452 -1.24033,2.36884 -1.22646,4.09298 z" />
    <path
       inkscape:connector-curvature="0"
       id="path3989"
       style="font-size:44.28073502px;font-style:normal;font-variant:normal;font-weight:bold;font-stretch:normal;line-height:125%;letter-spacing:0px;word-spacing:0px;fill:#000000;fill-opacity:1;stroke:none;font-family:Arial;-inkscape-font-specification:Arial Bold"
       d="m 209.17484,512.32013 -5.84127,0 0,-23.88325 5.42552,0 0,3.39583 c 0.9285,-1.60419 1.76346,-2.66116 2.50489,-3.17094 0.74141,-0.50973 1.5833,-0.7646 2.52567,-0.76462 1.33038,2e-5 2.61227,0.39733 3.84568,1.19191 l -1.8085,5.50979 c -0.98396,-0.68964 -1.89861,-1.03447 -2.74394,-1.0345 -0.81766,3e-5 -1.51058,0.24365 -2.07875,0.7309 -0.5682,0.48727 -1.01513,1.36809 -1.34079,2.64245 -0.32568,1.27438 -0.48852,3.94307 -0.48851,8.00606 z" />
    <path
       inkscape:connector-curvature="0"
       id="path3991"
       style="font-size:44.28073502px;font-style:normal;font-variant:normal;font-weight:bold;font-stretch:normal;line-height:125%;letter-spacing:0px;word-spacing:0px;fill:#000000;fill-opacity:1;stroke:none;font-family:Arial;-inkscape-font-specification:Arial Bold"
       d="m 240.2105,512.32013 -5.84127,0 0,-12.189 c -2e-5,-2.57872 -0.12474,-4.24665 -0.37417,-5.0038 -0.24947,-0.7571 -0.65482,-1.34556 -1.21606,-1.76537 -0.56129,-0.41977 -1.23687,-0.62967 -2.02678,-0.62969 -1.01167,2e-5 -1.91939,0.29987 -2.72315,0.89956 -0.80379,0.59972 -1.35466,1.39433 -1.65261,2.38382 -0.29796,0.98953 -0.44694,2.81862 -0.44693,5.48731 l 0,10.81717 -5.84127,0 0,-23.88325 5.42552,0 0,3.50828 c 1.9263,-2.69865 4.3515,-4.04799 7.27561,-4.04801 1.2888,2e-5 2.46676,0.25115 3.53387,0.75338 1.06706,0.50228 1.87431,1.14321 2.42173,1.9228 0.54738,0.77963 0.92848,1.6642 1.14331,2.65369 0.21477,0.98953 0.32217,2.40633 0.3222,4.25042 z" />
    <path
       inkscape:connector-curvature="0"
       id="path3993"
       style="font-size:44.28073502px;font-style:normal;font-variant:normal;font-weight:bold;font-stretch:normal;line-height:125%;letter-spacing:0px;word-spacing:0px;fill:#000000;fill-opacity:1;stroke:none;font-family:Arial;-inkscape-font-specification:Arial Bold"
       d="m 250.52105,495.72329 -5.30079,-1.03448 c 0.5959,-2.30885 1.62141,-4.01801 3.07653,-5.12748 1.45512,-1.10943 3.61701,-1.66416 6.48569,-1.66418 2.60534,2e-5 4.5455,0.33361 5.82047,1.00075 1.27495,0.6672 2.17227,1.51428 2.69198,2.54126 0.51966,1.02701 0.7795,2.91233 0.77952,5.65596 l -0.0624,7.37637 c -2e-5,2.09898 0.0935,3.64696 0.28063,4.64397 0.18706,0.997 0.53698,2.06523 1.04976,3.20467 l -5.7789,0 c -0.15246,-0.41979 -0.33955,-1.04199 -0.56127,-1.86659 -0.097,-0.37481 -0.16631,-0.62219 -0.20787,-0.74213 -0.99781,1.04949 -2.0649,1.8366 -3.20127,2.36134 -1.13638,0.52474 -2.34898,0.78711 -3.63779,0.78711 -2.27277,0 -4.06395,-0.66717 -5.37356,-2.00151 -1.30961,-1.33434 -1.96442,-3.02102 -1.96442,-5.06002 0,-1.34933 0.29796,-2.55247 0.89387,-3.60947 0.5959,-1.05697 1.43086,-1.86657 2.50488,-2.4288 1.07401,-0.56221 2.62268,-1.05322 4.646,-1.47302 2.73007,-0.55472 4.62172,-1.07196 5.67496,-1.55174 l 0,-0.62969 c -10e-6,-1.21438 -0.27718,-2.08021 -0.83149,-2.59747 -0.55435,-0.51722 -1.60065,-0.77585 -3.1389,-0.77587 -1.03939,2e-5 -1.85009,0.22116 -2.43213,0.66342 -0.58206,0.4423 -1.05324,1.21817 -1.41355,2.3276 z m 7.81607,5.12748 c -0.74835,0.26988 -1.93324,0.59222 -3.55464,0.96703 -1.62144,0.37482 -2.68159,0.74214 -3.18049,1.10196 -0.76221,0.58471 -1.14331,1.32685 -1.14331,2.2264 0,0.88457 0.30488,1.64919 0.91466,2.29387 0.60975,0.64469 1.38582,0.96703 2.32819,0.96702 1.05321,10e-6 2.05794,-0.37481 3.01417,-1.12444 0.70676,-0.56972 1.17101,-1.26687 1.39277,-2.09148 0.15242,-0.53972 0.22864,-1.56671 0.22865,-3.08097 z" />
    <path
       inkscape:connector-curvature="0"
       id="path3995"
       style="font-size:44.28073502px;font-style:normal;font-variant:normal;font-weight:bold;font-stretch:normal;line-height:125%;letter-spacing:0px;word-spacing:0px;fill:#000000;fill-opacity:1;stroke:none;font-family:Arial;-inkscape-font-specification:Arial Bold"
       d="m 279.97686,488.43688 0,5.03753 -3.99119,0 0,9.62526 c -1e-5,1.94905 0.0381,3.08474 0.11433,3.40707 0.0762,0.32234 0.24943,0.58847 0.51968,0.79835 0.27023,0.20991 0.59936,0.31486 0.98741,0.31485 0.54046,1e-5 1.32346,-0.2024 2.34898,-0.6072 l 0.4989,4.90259 c -1.35812,0.62969 -2.8964,0.94453 -4.61481,0.94453 -1.05325,0 -2.00254,-0.19115 -2.84788,-0.57347 -0.84537,-0.38231 -1.46552,-0.87706 -1.86048,-1.48426 -0.39496,-0.6072 -0.66866,-1.42805 -0.8211,-2.46254 -0.12473,-0.73464 -0.18709,-2.2189 -0.18709,-4.45281 l 0,-10.41237 -2.68158,0 0,-5.03753 2.68158,0 0,-4.74516 5.86206,-3.68818 0,8.43334 z" />
    <path
       inkscape:connector-curvature="0"
       id="path3997"
       style="font-size:44.28073502px;font-style:normal;font-variant:normal;font-weight:bold;font-stretch:normal;line-height:125%;letter-spacing:0px;word-spacing:0px;fill:#000000;fill-opacity:1;stroke:none;font-family:Arial;-inkscape-font-specification:Arial Bold"
       d="m 284.07197,485.19847 0,-5.84711 5.84127,0 0,5.84711 z m 0,27.12166 0,-23.88325 5.84127,0 0,23.88325 z" />
    <path
       inkscape:connector-curvature="0"
       id="path3999"
       style="font-size:44.28073502px;font-style:normal;font-variant:normal;font-weight:bold;font-stretch:normal;line-height:125%;letter-spacing:0px;word-spacing:0px;fill:#000000;fill-opacity:1;stroke:none;font-family:Arial;-inkscape-font-specification:Arial Bold"
       d="m 294.52807,500.04117 c 0,-2.09896 0.47811,-4.13045 1.43433,-6.0945 0.95622,-1.96402 2.31086,-3.46327 4.06395,-4.49778 1.75306,-1.03448 3.71055,-1.55172 5.87245,-1.55174 3.33983,2e-5 6.07684,1.17319 8.21103,3.51952 2.13416,2.34636 3.20124,5.31115 3.20127,8.89437 -3e-5,3.61322 -1.07751,6.608 -3.23245,8.98433 -2.15498,2.37633 -4.86774,3.56449 -8.13828,3.56449 -2.02332,0 -3.95309,-0.49475 -5.7893,-1.48427 -1.83623,-0.98951 -3.23245,-2.44004 -4.18867,-4.35161 -0.95622,-1.91154 -1.43433,-4.23915 -1.43433,-6.98281 z m 5.98678,0.33733 c -1e-5,2.36885 0.51968,4.18295 1.55906,5.44233 1.03936,1.25938 2.32125,1.88907 3.84567,1.88907 1.5244,0 2.80283,-0.62969 3.83529,-1.88907 1.03242,-1.25938 1.54864,-3.08847 1.54866,-5.4873 -2e-5,-2.33884 -0.51624,-4.13795 -1.54866,-5.39735 -1.03246,-1.25936 -2.31089,-1.88905 -3.83529,-1.88907 -1.52442,2e-5 -2.80631,0.62971 -3.84567,1.88907 -1.03938,1.2594 -1.55907,3.07351 -1.55906,5.44232 z" />
    <path
       inkscape:connector-curvature="0"
       id="path4001"
       style="font-size:44.28073502px;font-style:normal;font-variant:normal;font-weight:bold;font-stretch:normal;line-height:125%;letter-spacing:0px;word-spacing:0px;fill:#000000;fill-opacity:1;stroke:none;font-family:Arial;-inkscape-font-specification:Arial Bold"
       d="m 341.98576,512.32013 -5.84127,0 0,-12.189 c -2e-5,-2.57872 -0.12473,-4.24665 -0.37417,-5.0038 -0.24947,-0.7571 -0.65482,-1.34556 -1.21607,-1.76537 -0.56127,-0.41977 -1.23686,-0.62967 -2.02677,-0.62969 -1.01167,2e-5 -1.91938,0.29987 -2.72315,0.89956 -0.80379,0.59972 -1.35466,1.39433 -1.65261,2.38382 -0.29795,0.98953 -0.44694,2.81862 -0.44693,5.48731 l 0,10.81717 -5.84127,0 0,-23.88325 5.42552,0 0,3.50828 c 1.9263,-2.69865 4.3515,-4.04799 7.27561,-4.04801 1.2888,2e-5 2.46676,0.25115 3.53386,0.75338 1.06707,0.50228 1.87431,1.14321 2.42174,1.9228 0.54738,0.77963 0.92848,1.6642 1.14331,2.65369 0.21478,0.98953 0.32218,2.40633 0.3222,4.25042 z" />
    <path
       inkscape:connector-curvature="0"
       id="path4003"
       style="font-size:44.28073502px;font-style:normal;font-variant:normal;font-weight:bold;font-stretch:normal;line-height:125%;letter-spacing:0px;word-spacing:0px;fill:#000000;fill-opacity:1;stroke:none;font-family:Arial;-inkscape-font-specification:Arial Bold"
       d="m 352.29634,495.72329 -5.3008,-1.03448 c 0.59591,-2.30885 1.62142,-4.01801 3.07654,-5.12748 1.45512,-1.10943 3.61701,-1.66416 6.48569,-1.66418 2.60534,2e-5 4.54549,0.33361 5.82047,1.00075 1.27495,0.6672 2.17228,1.51428 2.69198,2.54126 0.51967,1.02701 0.77951,2.91233 0.77953,5.65596 l -0.0624,7.37637 c -2e-5,2.09898 0.0935,3.64696 0.28063,4.64397 0.18707,0.997 0.53699,2.06523 1.04978,3.20467 l -5.77892,0 c -0.15245,-0.41979 -0.33954,-1.04199 -0.56126,-1.86659 -0.097,-0.37481 -0.16632,-0.62219 -0.20787,-0.74213 -0.99781,1.04949 -2.0649,1.8366 -3.20127,2.36134 -1.13639,0.52474 -2.34899,0.78711 -3.6378,0.78711 -2.27276,0 -4.06395,-0.66717 -5.37355,-2.00151 -1.30961,-1.33434 -1.96441,-3.02102 -1.96441,-5.06002 0,-1.34933 0.29795,-2.55247 0.89386,-3.60947 0.5959,-1.05697 1.43086,-1.86657 2.50488,-2.4288 1.07402,-0.56221 2.62268,-1.05322 4.646,-1.47302 2.73006,-0.55472 4.62172,-1.07196 5.67497,-1.55174 l 0,-0.62969 c -2e-5,-1.21438 -0.27719,-2.08021 -0.8315,-2.59747 -0.55435,-0.51722 -1.60065,-0.77585 -3.1389,-0.77587 -1.03938,2e-5 -1.85009,0.22116 -2.43213,0.66342 -0.58206,0.4423 -1.05325,1.21817 -1.41355,2.3276 z m 7.81608,5.12748 c -0.74837,0.26988 -1.93325,0.59222 -3.55465,0.96703 -1.62144,0.37482 -2.6816,0.74214 -3.18048,1.10196 -0.76222,0.58471 -1.14332,1.32685 -1.14331,2.2264 -10e-6,0.88457 0.30487,1.64919 0.91464,2.29387 0.60976,0.64469 1.38582,0.96703 2.3282,0.96702 1.05322,10e-6 2.05794,-0.37481 3.01417,-1.12444 0.70677,-0.56972 1.17102,-1.26687 1.39276,-2.09148 0.15243,-0.53972 0.22865,-1.56671 0.22867,-3.08097 z" />
    <path
       inkscape:connector-curvature="0"
       id="path4005"
       style="font-size:44.28073502px;font-style:normal;font-variant:normal;font-weight:bold;font-stretch:normal;line-height:125%;letter-spacing:0px;word-spacing:0px;fill:#000000;fill-opacity:1;stroke:none;font-family:Arial;-inkscape-font-specification:Arial Bold"
       d="m 371.62866,512.32013 0,-32.96877 5.84127,0 0,32.96877 z" />
    <path
       inkscape:connector-curvature="0"
       id="path4007"
       style="font-size:44.28073502px;font-style:normal;font-variant:normal;font-weight:bold;font-stretch:normal;line-height:125%;letter-spacing:0px;word-spacing:0px;fill:#000000;fill-opacity:1;stroke:none;font-family:Arial;-inkscape-font-specification:Arial Bold"
       d="m 394.03753,496.03814 c 0,-3.35832 0.46425,-6.17694 1.39276,-8.45583 0.69291,-1.67915 1.63873,-3.18591 2.83749,-4.52028 1.19873,-1.33432 2.5118,-2.32383 3.93921,-2.96854 1.89858,-0.86954 4.08819,-1.30433 6.56883,-1.30436 4.49007,3e-5 8.08283,1.50679 10.77828,4.52027 2.69541,3.01355 4.04313,7.20398 4.04317,12.57132 -4e-5,5.32239 -1.33737,9.48659 -4.01198,12.4926 -2.67468,3.00602 -6.25011,4.50903 -10.72631,4.50903 -4.53168,0 -8.13483,-1.49551 -10.80947,-4.48654 -2.67465,-2.99102 -4.01198,-7.11024 -4.01198,-12.35767 z m 6.34017,-0.22489 c -1e-5,3.73317 0.79684,6.56303 2.39055,8.48958 1.59369,1.92655 3.617,2.88983 6.06993,2.88982 2.45291,10e-6 4.46582,-0.95577 6.03876,-2.86734 1.57288,-1.91154 2.35934,-4.77889 2.35937,-8.60202 -3e-5,-3.77811 -0.76569,-6.59673 -2.29701,-8.45583 -1.53136,-1.85906 -3.56507,-2.78861 -6.10112,-2.78863 -2.53608,2e-5 -4.58018,0.94081 -6.13228,2.82236 -1.55215,1.8816 -2.32821,4.71895 -2.3282,8.51206 z" />
    <path
       inkscape:connector-curvature="0"
       id="path4009"
       style="font-size:44.28073502px;font-style:normal;font-variant:normal;font-weight:bold;font-stretch:normal;line-height:125%;letter-spacing:0px;word-spacing:0px;fill:#000000;fill-opacity:1;stroke:none;font-family:Arial;-inkscape-font-specification:Arial Bold"
       d="m 428.17047,488.43688 5.44631,0 0,3.50828 c 0.70677,-1.19939 1.66298,-2.17391 2.86867,-2.92357 1.20565,-0.7496 2.54298,-1.12442 4.01197,-1.12444 2.56377,2e-5 4.73952,1.08699 6.52726,3.26089 1.7877,2.17395 2.68155,5.20246 2.68157,9.08554 -2e-5,3.98804 -0.90081,7.08776 -2.70237,9.29917 -1.80159,2.21141 -3.98427,3.31711 -6.54803,3.31711 -1.21955,0 -2.32475,-0.26237 -3.31559,-0.78711 -0.99089,-0.52474 -2.03372,-1.4243 -3.12851,-2.69867 l 0,12.03157 -5.84128,0 z m 5.77891,11.53683 c -1e-5,2.68369 0.49196,4.66646 1.47591,5.94831 0.98393,1.28188 2.18266,1.92281 3.59623,1.92281 1.35809,0 2.48754,-0.58845 3.38834,-1.76538 0.90077,-1.17691 1.35117,-3.10721 1.35119,-5.7909 -2e-5,-2.50376 -0.46427,-4.36284 -1.39276,-5.57725 -0.92852,-1.21439 -2.07876,-1.82159 -3.45071,-1.82161 -1.42742,2e-5 -2.6123,0.59598 -3.55466,1.78788 -0.94237,1.19192 -1.41355,2.9573 -1.41354,5.29614 z" />
    <path
       inkscape:connector-curvature="0"
       id="path4011"
       style="font-size:44.28073502px;font-style:normal;font-variant:normal;font-weight:bold;font-stretch:normal;line-height:125%;letter-spacing:0px;word-spacing:0px;fill:#000000;fill-opacity:1;stroke:none;font-family:Arial;-inkscape-font-specification:Arial Bold"
       d="m 454.19635,488.43688 5.44631,0 0,3.50828 c 0.70676,-1.19939 1.66298,-2.17391 2.86867,-2.92357 1.20565,-0.7496 2.54298,-1.12442 4.01197,-1.12444 2.56377,2e-5 4.73952,1.08699 6.52725,3.26089 1.78769,2.17395 2.68156,5.20246 2.68158,9.08554 -2e-5,3.98804 -0.90081,7.08776 -2.70237,9.29917 -1.80159,2.21141 -3.98427,3.31711 -6.54803,3.31711 -1.21955,0 -2.32475,-0.26237 -3.3156,-0.78711 -0.99088,-0.52474 -2.03372,-1.4243 -3.12852,-2.69867 l 0,12.03157 -5.84126,0 z m 5.77891,11.53683 c -10e-6,2.68369 0.49196,4.66646 1.4759,5.94831 0.98393,1.28188 2.18267,1.92281 3.59623,1.92281 1.3581,0 2.48755,-0.58845 3.38835,-1.76538 0.90077,-1.17691 1.35117,-3.10721 1.35119,-5.7909 -2e-5,-2.50376 -0.46427,-4.36284 -1.39276,-5.57725 -0.92853,-1.21439 -2.07876,-1.82159 -3.45071,-1.82161 -1.42742,2e-5 -2.6123,0.59598 -3.55466,1.78788 -0.94237,1.19192 -1.41355,2.9573 -1.41354,5.29614 z" />
    <path
       inkscape:connector-curvature="0"
       id="path4013"
       style="font-size:44.28073502px;font-style:normal;font-variant:normal;font-weight:bold;font-stretch:normal;line-height:125%;letter-spacing:0px;word-spacing:0px;fill:#000000;fill-opacity:1;stroke:none;font-family:Arial;-inkscape-font-specification:Arial Bold"
       d="m 479.03734,500.04117 c 0,-2.09896 0.47811,-4.13045 1.43433,-6.0945 0.95622,-1.96402 2.31087,-3.46327 4.06395,-4.49778 1.75307,-1.03448 3.71054,-1.55172 5.87245,-1.55174 3.33984,2e-5 6.07684,1.17319 8.21104,3.51952 2.13415,2.34636 3.20124,5.31115 3.20126,8.89437 -2e-5,3.61322 -1.0775,6.608 -3.23244,8.98433 -2.15499,2.37633 -4.86774,3.56449 -8.13828,3.56449 -2.02333,0 -3.95309,-0.49475 -5.7893,-1.48427 -1.83624,-0.98951 -3.23246,-2.44004 -4.18868,-4.35161 -0.95622,-1.91154 -1.43433,-4.23915 -1.43433,-6.98281 z m 5.98678,0.33733 c 0,2.36885 0.51968,4.18295 1.55906,5.44233 1.03936,1.25938 2.32125,1.88907 3.84568,1.88907 1.5244,0 2.80282,-0.62969 3.83528,-1.88907 1.03242,-1.25938 1.54865,-3.08847 1.54866,-5.4873 -10e-6,-2.33884 -0.51624,-4.13795 -1.54866,-5.39735 -1.03246,-1.25936 -2.31088,-1.88905 -3.83528,-1.88907 -1.52443,2e-5 -2.80632,0.62971 -3.84568,1.88907 -1.03938,1.2594 -1.55906,3.07351 -1.55906,5.44232 z" />
    <path
       inkscape:connector-curvature="0"
       id="path4015"
       style="font-size:44.28073502px;font-style:normal;font-variant:normal;font-weight:bold;font-stretch:normal;line-height:125%;letter-spacing:0px;word-spacing:0px;fill:#000000;fill-opacity:1;stroke:none;font-family:Arial;-inkscape-font-specification:Arial Bold"
       d="m 512.00623,512.32013 -5.84127,0 0,-23.88325 5.42552,0 0,3.39583 c 0.9285,-1.60419 1.76346,-2.66116 2.50488,-3.17094 0.7414,-0.50973 1.5833,-0.7646 2.52568,-0.76462 1.33038,2e-5 2.61227,0.39733 3.84567,1.19191 l -1.80851,5.50979 c -0.98395,-0.68964 -1.89859,-1.03447 -2.74394,-1.0345 -0.81765,3e-5 -1.51056,0.24365 -2.07874,0.7309 -0.5682,0.48727 -1.01513,1.36809 -1.34079,2.64245 -0.32568,1.27438 -0.48851,3.94307 -0.4885,8.00606 z" />
    <path
       inkscape:connector-curvature="0"
       id="path4017"
       style="font-size:44.28073502px;font-style:normal;font-variant:normal;font-weight:bold;font-stretch:normal;line-height:125%;letter-spacing:0px;word-spacing:0px;fill:#000000;fill-opacity:1;stroke:none;font-family:Arial;-inkscape-font-specification:Arial Bold"
       d="m 533.08464,488.43688 0,5.03753 -3.99118,0 0,9.62526 c -1e-5,1.94905 0.0381,3.08474 0.11432,3.40707 0.0762,0.32234 0.24944,0.58847 0.51969,0.79835 0.27023,0.20991 0.59936,0.31486 0.9874,0.31485 0.54047,1e-5 1.32346,-0.2024 2.34898,-0.6072 l 0.4989,4.90259 c -1.35813,0.62969 -2.89639,0.94453 -4.6148,0.94453 -1.05325,0 -2.00254,-0.19115 -2.84788,-0.57347 -0.84537,-0.38231 -1.46552,-0.87706 -1.86048,-1.48426 -0.39497,-0.6072 -0.66867,-1.42805 -0.82111,-2.46254 -0.12472,-0.73464 -0.18709,-2.2189 -0.18708,-4.45281 l 0,-10.41237 -2.68158,0 0,-5.03753 2.68158,0 0,-4.74516 5.86206,-3.68818 0,8.43334 z" />
    <path
       inkscape:connector-curvature="0"
       id="path4019"
       style="font-size:44.28073502px;font-style:normal;font-variant:normal;font-weight:bold;font-stretch:normal;line-height:125%;letter-spacing:0px;word-spacing:0px;fill:#000000;fill-opacity:1;stroke:none;font-family:Arial;-inkscape-font-specification:Arial Bold"
       d="m 551.71018,512.32013 0,-3.57575 c -0.8038,1.27438 -1.8605,2.27889 -3.1701,3.01353 -1.30961,0.73463 -2.69198,1.10195 -4.14709,1.10195 -1.48284,0 -2.81324,-0.35233 -3.99119,-1.05698 -1.17796,-0.70465 -2.03023,-1.69416 -2.55684,-2.96854 -0.52662,-1.27436 -0.78993,-3.036 -0.78993,-5.28489 l 0,-15.11257 5.84127,0 0,10.9746 c -10e-6,3.35835 0.10739,5.4161 0.3222,6.17321 0.2148,0.75714 0.6063,1.35684 1.17449,1.79912 0.56819,0.44228 1.28881,0.66342 2.16189,0.66342 0.99779,0 1.89165,-0.2961 2.68159,-0.88831 0.7899,-0.59221 1.33038,-1.32685 1.62142,-2.20392 0.29101,-0.87706 0.43652,-3.02475 0.43654,-6.44308 l 0,-10.07504 5.84126,0 0,23.88325 z" />
    <path
       inkscape:connector-curvature="0"
       id="path4021"
       style="font-size:44.28073502px;font-style:normal;font-variant:normal;font-weight:bold;font-stretch:normal;line-height:125%;letter-spacing:0px;word-spacing:0px;fill:#000000;fill-opacity:1;stroke:none;font-family:Arial;-inkscape-font-specification:Arial Bold"
       d="m 583.28629,512.32013 -5.84127,0 0,-12.189 c -10e-6,-2.57872 -0.12473,-4.24665 -0.37417,-5.0038 -0.24947,-0.7571 -0.65482,-1.34556 -1.21607,-1.76537 -0.56127,-0.41977 -1.23686,-0.62967 -2.02677,-0.62969 -1.01167,2e-5 -1.91938,0.29987 -2.72315,0.89956 -0.80379,0.59972 -1.35466,1.39433 -1.65261,2.38382 -0.29795,0.98953 -0.44694,2.81862 -0.44693,5.48731 l 0,10.81717 -5.84126,0 0,-23.88325 5.42551,0 0,3.50828 c 1.9263,-2.69865 4.3515,-4.04799 7.27561,-4.04801 1.28881,2e-5 2.46676,0.25115 3.53386,0.75338 1.06707,0.50228 1.87432,1.14321 2.42174,1.9228 0.54738,0.77963 0.92848,1.6642 1.14331,2.65369 0.21478,0.98953 0.32218,2.40633 0.3222,4.25042 z" />
    <path
       inkscape:connector-curvature="0"
       id="path4023"
       style="font-size:44.28073502px;font-style:normal;font-variant:normal;font-weight:bold;font-stretch:normal;line-height:125%;letter-spacing:0px;word-spacing:0px;fill:#000000;fill-opacity:1;stroke:none;font-family:Arial;-inkscape-font-specification:Arial Bold"
       d="m 589.23151,485.19847 0,-5.84711 5.84127,0 0,5.84711 z m 0,27.12166 0,-23.88325 5.84127,0 0,23.88325 z" />
    <path
       inkscape:connector-curvature="0"
       id="path4025"
       style="font-size:44.28073502px;font-style:normal;font-variant:normal;font-weight:bold;font-stretch:normal;line-height:125%;letter-spacing:0px;word-spacing:0px;fill:#000000;fill-opacity:1;stroke:none;font-family:Arial;-inkscape-font-specification:Arial Bold"
       d="m 611.16227,488.43688 0,5.03753 -3.99118,0 0,9.62526 c -1e-5,1.94905 0.0381,3.08474 0.11433,3.40707 0.0762,0.32234 0.24944,0.58847 0.51969,0.79835 0.27022,0.20991 0.59935,0.31486 0.98739,0.31485 0.54047,1e-5 1.32346,-0.2024 2.34899,-0.6072 l 0.49889,4.90259 c -1.35812,0.62969 -2.89639,0.94453 -4.61481,0.94453 -1.05323,0 -2.00252,-0.19115 -2.84788,-0.57347 -0.84536,-0.38231 -1.46552,-0.87706 -1.86047,-1.48426 -0.39496,-0.6072 -0.66866,-1.42805 -0.82111,-2.46254 -0.12472,-0.73464 -0.18708,-2.2189 -0.18708,-4.45281 l 0,-10.41237 -2.68158,0 0,-5.03753 2.68158,0 0,-4.74516 5.86206,-3.68818 0,8.43334 z" />
    <path
       inkscape:connector-curvature="0"
       id="path4027"
       style="font-size:44.28073502px;font-style:normal;font-variant:normal;font-weight:bold;font-stretch:normal;line-height:125%;letter-spacing:0px;word-spacing:0px;fill:#000000;fill-opacity:1;stroke:none;font-family:Arial;-inkscape-font-specification:Arial Bold"
       d="m 612.49266,488.43688 6.21545,0 5.28,16.95666 5.15529,-16.95666 6.04914,0 -7.79529,22.98369 -1.39275,4.16046 c -0.51278,1.3943 -1.00128,2.45878 -1.46553,3.19342 -0.46426,0.73464 -0.9978,1.33058 -1.60063,1.78787 -0.60284,0.45727 -1.34426,0.81335 -2.22425,1.06823 -0.88001,0.25486 -1.87435,0.3823 -2.983,0.38231 -1.12253,-1e-5 -2.22426,-0.12745 -3.3052,-0.38231 l -0.51969,-4.94757 c 0.91465,0.1949 1.73921,0.29235 2.47371,0.29236 1.35811,-10e-6 2.36283,-0.43105 3.01417,-1.29312 0.65134,-0.86207 1.15023,-1.96029 1.4967,-3.29463 z" />
    <path
       sodipodi:nodetypes="csccccccccccccccc"
       inkscape:connector-curvature="0"
       id="path3916"
       style="font-size:391.28411865px;font-style:normal;font-variant:normal;font-weight:bold;font-stretch:normal;text-align:start;line-height:125%;letter-spacing:0px;word-spacing:0px;writing-mode:lr-tb;text-anchor:start;fill:#c7002b;fill-opacity:1;stroke:none;font-family:Tunga;-inkscape-font-specification:Tunga Bold"
       d="m 555.55784,458.00124 c -38.21988,0.25254 -51.18608,-5.16102 -67.68797,-18.00844 -16.50197,-12.84739 -24.17783,-33.3233 -25.55298,-59.40751 l 52.21395,0 c 2.31797,26.84542 17.20827,37.27809 42.17471,37.12694 19.41298,-0.0586 36.83439,-4.65417 34.78264,-24.1686 -1.35483,-20.31658 -32.18579,-16.9819 -72.19948,-33.92059 -28.03794,-8.34423 -54.88688,-30.60714 -52.56642,-65.35009 3.53344,-47.22523 45.98741,-64.72341 85.84272,-64.89997 47.5546,-0.0381 83.87796,23.26445 84.51923,72.00895 l -51.39808,-0.71428 c -0.23365,-28.74343 -32.04677,-28.83522 -35.97829,-28.88819 -20.67092,-0.67715 -30.90122,10.51102 -30.40633,19.46093 0.20242,17.0217 21.11322,21.63288 41.56771,28.17713 38.42698,12.20297 83.51934,19.48345 83.76914,70.93752 -0.39589,20.50552 -6.05066,35.65668 -23.20374,49.39323 -13.24281,10.34891 -35.74183,18.09757 -65.87681,18.25297 z" />
    <path
       style="fill:#c7002b;fill-opacity:1;stroke:none"
       d="m -107.14286,238.6843 55.714289,0 0,215.92011 -55.714289,0 z"
       id="path3952"
       inkscape:connector-curvature="0" />
    <path
       style="fill:#c7002b;fill-opacity:1;stroke:none"
       d="m -27.857143,238.6843 166.428573,0 0,43.94164 -112.307464,0 0,40.45052 112.307464,0 0,42.85715 -112.307464,0 0,44.28571 112.307464,0 0,44.38509 -166.428573,0 z"
       id="path3954"
       inkscape:connector-curvature="0" />
    <path
       style="fill:#c7002b;fill-opacity:1;stroke:none"
       d="m 160,238.6843 55,0 0,169.53502 101.42857,0 0,46.38509 -156.42857,0 z"
       id="path3956"
       inkscape:connector-curvature="0"
       sodipodi:nodetypes="ccccccc" />
    <path
       style="fill:#c7002b;fill-opacity:1;stroke:none"
       d="m 276.02418,238.6843 179.30208,0 0,43.94164 -62.12438,0 0,171.97847 -54.80078,0 0,-171.97847 -62.37692,0 z"
       id="path3958"
       inkscape:connector-curvature="0" />
    <path
       inkscape:connector-curvature="0"
       id="path4576"
       style="font-size:35.08685303px;font-style:normal;font-variant:normal;font-weight:bold;font-stretch:normal;line-height:125%;letter-spacing:0px;word-spacing:0px;fill:#000000;fill-opacity:1;stroke:none;font-family:Arial;-inkscape-font-specification:Arial Bold"
       d="m 631.69254,263.7908 0,-21.41526 -7.26176,0 0,-4.36041 19.44817,0 0,4.36041 -7.24507,0 0,21.41526 z" />
    <path
       inkscape:connector-curvature="0"
       id="path4578"
       style="font-size:35.08685303px;font-style:normal;font-variant:normal;font-weight:bold;font-stretch:normal;line-height:125%;letter-spacing:0px;word-spacing:0px;fill:#000000;fill-opacity:1;stroke:none;font-family:Arial;-inkscape-font-specification:Arial Bold"
       d="m 647.01736,263.7908 0,-25.77567 7.39532,0 4.44053,17.58231 4.39044,-17.58231 7.41201,0 0,25.77567 -4.59077,0 0,-20.28999 -4.85786,20.28999 -4.75771,0 -4.84118,-20.28999 0,20.28999 z" />
  </g>
</svg>
